<?xml version="1.0" standalone="no"?>
<!DOCTYPE svg PUBLIC "-//W3C//DTD SVG 20010904//EN"
 "http://www.w3.org/TR/2001/REC-SVG-20010904/DTD/svg10.dtd">
<svg version="1.0" xmlns="http://www.w3.org/2000/svg"
 width="1280.000000pt" height="1280.000000pt" viewBox="0 0 1280.000000 1280.000000"
 preserveAspectRatio="xMidYMid meet">
<metadata>
Created by potrace 1.11, written by Peter Selinger 2001-2013
</metadata>
<g transform="translate(0.000000,1280.000000) scale(0.100000,-0.100000)"
fill="#000000" stroke="none">
<path d="M6283 11623 c-39 -58 -69 -148 -79 -238 -4 -33 -16 -78 -28 -100 -19
-37 -21 -60 -24 -304 l-4 -264 -23 29 c-19 24 -25 26 -38 15 -19 -15 -9 -47
27 -96 28 -37 44 -67 21 -40 -9 11 -23 28 -30 39 -16 22 -45 15 -45 -11 0 -10
7 -29 16 -41 14 -20 14 -23 0 -28 -27 -10 -18 -47 30 -117 35 -54 44 -75 42
-102 -3 -34 -3 -34 -68 60 -65 94 -92 113 -98 68 -3 -18 64 -127 147 -240 13
-17 21 -40 19 -54 -3 -21 -7 -17 -33 29 -18 32 -36 51 -45 50 -30 -6 -21 -45
29 -119 l49 -74 5 -440 c4 -293 11 -492 21 -595 38 -368 46 -553 46 -1060 0
-339 5 -574 15 -715 12 -171 15 -514 15 -1848 l0 -1639 -63 80 c-48 60 -70 98
-87 153 -36 111 -90 183 -190 253 -47 33 -114 89 -150 126 -141 143 -632 508
-836 621 l-79 44 -310 -1 c-312 -1 -466 -13 -531 -40 -18 -8 -72 -43 -119 -79
-82 -63 -87 -65 -157 -71 -141 -11 -223 -38 -283 -94 -16 -15 -82 -54 -145
-85 -140 -71 -180 -101 -229 -174 -21 -31 -48 -64 -60 -75 -11 -10 -31 -39
-43 -65 -12 -25 -39 -64 -60 -85 -47 -49 -80 -120 -101 -214 -9 -41 -25 -86
-35 -100 -46 -69 -55 -123 -54 -331 2 -216 17 -336 56 -429 13 -31 28 -85 35
-119 6 -33 23 -89 37 -124 14 -34 42 -110 63 -168 55 -154 116 -265 281 -510
103 -154 181 -243 322 -367 174 -154 243 -206 379 -287 192 -114 460 -242 763
-365 l141 -56 245 -4 c190 -3 266 -1 340 12 52 8 188 19 301 24 l206 8 75 36
c41 19 90 48 109 64 18 16 52 43 74 59 22 16 50 40 63 54 66 73 111 129 125
156 9 17 52 70 96 118 84 93 133 169 146 227 4 19 16 52 26 72 35 68 23 244
-41 628 -21 129 -61 316 -87 415 l-48 180 -5 1955 c-3 1238 -9 1960 -15 1970
-6 9 -12 290 -16 710 -7 657 -9 708 -34 935 -21 195 -27 307 -32 595 -3 195
-4 364 -2 375 5 21 8 16 193 -270 53 -82 125 -181 159 -220 34 -38 86 -103
116 -145 30 -41 82 -104 117 -140 156 -161 232 -247 239 -270 14 -47 75 -161
113 -213 65 -87 175 -199 209 -213 18 -8 79 -19 135 -24 79 -8 117 -17 163
-40 33 -16 100 -41 150 -55 49 -14 99 -32 110 -39 47 -31 146 -58 317 -87
l183 -30 370 4 c423 4 389 -2 602 106 66 33 124 61 127 61 26 0 263 157 326
215 41 39 89 80 106 93 18 12 57 55 88 95 53 69 69 82 281 216 237 151 278
187 373 326 57 85 119 247 141 370 13 70 31 455 24 503 -4 22 -11 32 -23 32
-18 0 -30 -26 -30 -67 0 -13 -5 -23 -11 -23 -7 0 -9 43 -4 145 7 132 6 145
-10 151 -10 4 -21 1 -26 -7 -5 -9 -9 25 -9 87 0 86 -3 103 -17 108 -9 4 -20 3
-24 -1 -12 -14 -224 -464 -258 -550 -37 -92 -102 -202 -163 -275 -46 -55 -123
-112 -138 -103 -14 8 -65 -35 -108 -93 -59 -76 -91 -98 -243 -166 -300 -134
-528 -205 -831 -257 -183 -31 -664 -36 -863 -9 -214 30 -453 84 -582 132 -75
27 -281 185 -465 353 -144 133 -162 153 -221 252 -93 155 -87 142 -206 505
-59 183 -133 398 -163 478 -59 153 -81 221 -154 470 -54 185 -64 229 -72 340
-8 95 -25 114 -59 63z m134 -1230 c18 -25 45 -61 61 -81 50 -65 104 -142 99
-142 -12 0 -257 324 -257 341 0 11 28 -22 97 -118z m4430 -155 c-3 -7 -5 -2
-5 12 0 14 2 19 5 13 2 -7 2 -19 0 -25z m-4466 -55 c13 -16 12 -17 -3 -4 -10
7 -18 15 -18 17 0 8 8 3 21 -13z m49 -68 c17 -25 29 -45 26 -45 -3 0 -19 20
-36 45 -17 25 -29 45 -26 45 3 0 19 -20 36 -45z m171 28 c13 -16 12 -17 -3 -4
-10 7 -18 15 -18 17 0 8 8 3 21 -13z m-74 -286 c63 -95 143 -203 177 -242 108
-123 133 -159 149 -215 l15 -55 -31 39 c-18 22 -59 71 -92 109 -83 95 -162
200 -265 352 -48 72 -104 152 -124 180 -27 37 -36 60 -36 89 l0 38 45 -61 c25
-34 98 -139 162 -234z m-71 -82 c70 -105 149 -221 175 -260 26 -38 66 -88 89
-110 23 -22 66 -74 96 -116 29 -42 83 -108 119 -145 41 -42 80 -96 101 -139
l35 -70 -38 45 c-20 25 -61 69 -90 98 -29 29 -91 103 -136 165 -46 61 -94 121
-107 132 -27 24 -145 194 -225 323 -32 52 -79 123 -106 158 -31 40 -49 73 -49
90 0 15 2 25 4 23 3 -2 62 -90 132 -194z m317 -126 c3 -11 4 -19 2 -19 -2 0
-27 30 -55 68 l-53 67 51 -49 c28 -27 53 -57 55 -67z m4102 29 c-18 -232 -36
-294 -118 -403 -81 -109 -151 -173 -252 -231 l-50 -29 56 70 c140 175 252 379
343 628 10 26 20 47 23 47 3 0 2 -37 -2 -82z m-216 -129 c-18 -33 -62 -92 -98
-131 -66 -71 -204 -188 -222 -188 -5 0 23 38 63 85 39 47 75 85 79 85 14 0
126 109 165 160 21 28 40 50 42 50 2 0 -11 -27 -29 -61z m-3648 -172 c20 -39
20 -41 2 -22 -22 23 -49 80 -33 70 6 -4 20 -25 31 -48z m3231 -159 c-39 -47
-87 -93 -112 -107 l-43 -24 64 78 c50 61 134 133 157 135 2 0 -28 -37 -66 -82z
m231 -45 c-26 -32 -100 -118 -163 -192 l-115 -134 -158 -78 c-87 -42 -172 -82
-190 -88 -31 -11 -31 -10 18 39 28 28 71 67 96 85 25 19 78 71 119 117 64 73
95 97 249 194 97 62 180 112 184 113 5 1 -13 -25 -40 -56z m112 -149 c-44 -34
-269 -175 -254 -159 9 10 72 53 140 96 117 74 159 98 114 63z m-1402 -81 c-7
-2 -19 -2 -25 0 -7 3 -2 5 12 5 14 0 19 -2 13 -5z m-50 -10 c-7 -2 -19 -2 -25
0 -7 3 -2 5 12 5 14 0 19 -2 13 -5z m-56 -9 c-3 -3 -12 -4 -19 -1 -8 3 -5 6 6
6 11 1 17 -2 13 -5z m-64 -11 c-7 -2 -21 -2 -30 0 -10 3 -4 5 12 5 17 0 24 -2
18 -5z m-726 -9 c-3 -3 -12 -4 -19 -1 -8 3 -5 6 6 6 11 1 17 -2 13 -5z m411
-11 c-65 -2 -171 -2 -235 0 -65 1 -12 3 117 3 129 0 182 -2 118 -3z m-1397
-50 c13 -16 12 -17 -3 -4 -10 7 -18 15 -18 17 0 8 8 3 21 -13z m2564 -2 c-29
-28 -311 -203 -370 -229 -53 -23 -194 -63 -285 -81 -289 -56 -736 -56 -904 0
-34 12 -79 25 -101 30 -25 5 73 7 254 4 332 -5 758 15 851 41 30 9 107 42 170
75 91 47 377 174 400 178 2 1 -4 -8 -15 -18z m-2185 -26 c26 -22 36 -35 26
-35 -9 0 -40 16 -69 35 -46 31 -49 35 -25 35 15 0 43 -14 68 -35z m2429 -81
c-32 -39 -413 -206 -564 -248 -109 -31 -103 -30 -76 -11 13 10 96 44 185 75
167 60 298 115 401 168 71 36 71 37 54 16z m-2731 -180 c86 -96 139 -134 185
-134 8 0 24 -12 38 -26 l24 -26 -30 7 c-126 29 -145 37 -192 89 -56 63 -121
148 -153 201 l-25 40 32 -25 c17 -14 72 -71 121 -126z m298 121 c18 -14 17
-15 -11 -9 -46 10 -65 23 -34 24 14 0 34 -7 45 -15z m422 -32 c35 -13 32 -13
-63 -10 -71 2 -109 8 -130 20 -29 17 -28 17 63 11 51 -4 110 -13 130 -21z
m-563 -68 c17 -12 48 -39 70 -59 l40 -36 -30 6 c-49 11 -87 32 -140 81 l-50
45 40 -7 c22 -4 54 -17 70 -30z m294 -85 l96 -29 -81 0 -81 -1 -64 51 c-95 76
-101 84 -30 44 36 -20 108 -49 160 -65z m113 70 c39 -11 108 -35 152 -54 45
-19 110 -39 146 -44 l65 -10 -73 -1 c-43 0 -84 4 -100 12 -15 8 -76 26 -135
41 -60 16 -134 39 -165 52 l-57 23 48 1 c26 0 79 -9 119 -20z m1998 15 c0 -3
-26 -21 -57 -42 -32 -20 -77 -49 -101 -66 -58 -39 -322 -174 -397 -202 -83
-31 -251 -46 -550 -48 -227 -1 -266 1 -420 25 -93 15 -195 36 -225 46 l-55 19
430 5 c413 5 436 6 575 32 328 61 505 110 696 195 91 40 104 45 104 36z m-55
-114 c-50 -50 -476 -278 -575 -309 -83 -26 -233 -34 -526 -29 -384 6 -581 35
-718 104 -28 14 -91 36 -140 50 -50 13 -92 26 -96 29 -3 4 40 4 95 2 85 -3
107 -8 145 -30 62 -36 125 -54 265 -77 226 -37 345 -44 645 -38 212 5 300 10
345 22 69 18 363 162 480 234 81 50 97 58 80 42z m-2100 -79 l40 -21 -52 -1
c-44 0 -58 5 -85 29 l-32 28 45 -7 c24 -3 62 -16 84 -28z m1242 32 c-3 -3 -12
-4 -19 -1 -8 3 -5 6 6 6 11 1 17 -2 13 -5z m-167 -14 c-41 -4 -129 -7 -195 -7
l-120 1 125 6 c69 3 157 6 195 6 l70 1 -75 -7z m-660 -24 l75 -15 -155 3
c-112 2 -168 7 -200 19 -45 16 -45 16 80 12 69 -2 159 -11 200 -19z m-4263
-3482 c-3 -3 -12 -4 -19 -1 -8 3 -5 6 6 6 11 1 17 -2 13 -5z m546 -231 c-40
-2 -107 -2 -150 0 -43 1 -10 3 72 3 83 0 118 -2 78 -3z m-280 -10 c-7 -2 -21
-2 -30 0 -10 3 -4 5 12 5 17 0 24 -2 18 -5z m-71 -72 c-34 -10 -86 -34 -116
-54 -52 -35 -58 -36 -189 -46 -140 -11 -205 -28 -282 -76 -22 -14 -101 -55
-175 -91 -125 -61 -141 -73 -221 -154 -98 -100 -96 -83 9 69 84 122 114 155
181 200 86 59 132 79 238 106 128 32 142 32 135 0 -6 -36 18 -32 74 10 25 19
58 36 72 36 15 1 79 5 142 9 63 3 133 7 155 8 37 1 36 -1 -23 -17z m613 -24
c29 -16 26 -16 -100 -17 -185 -1 -410 -17 -485 -34 -148 -35 -124 -9 28 30
161 42 496 55 557 21z m295 -39 c30 -16 44 -26 30 -22 -14 4 -50 20 -80 36
-30 16 -44 26 -30 22 14 -4 50 -20 80 -36z m-115 -49 l20 -8 -20 0 c-11 0 -38
7 -60 14 l-40 14 40 -6 c22 -3 49 -9 60 -14z m-79 -48 c64 -14 119 -35 197
-76 59 -31 133 -66 164 -77 32 -11 71 -27 87 -35 30 -16 166 -121 166 -129 0
-2 -41 16 -90 41 -50 25 -125 59 -167 76 -42 17 -108 49 -147 72 -92 54 -108
61 -205 86 -75 20 -107 21 -457 21 -208 0 -375 3 -371 6 3 3 23 12 44 19 29
11 115 14 364 15 285 0 336 -2 415 -19z m-977 -10 c-18 -13 -48 -20 -115 -24
-63 -4 -109 -13 -152 -31 -34 -13 -62 -23 -62 -21 0 2 21 17 48 32 46 27 189
60 271 62 l34 1 -24 -19z m1261 -47 c0 -2 -13 2 -30 11 -16 9 -30 18 -30 21 0
2 14 -2 30 -11 17 -9 30 -18 30 -21z m278 -101 c45 -30 82 -56 82 -58 0 -12
-151 68 -215 115 -41 30 -75 56 -75 57 0 8 134 -65 208 -114z m-1548 78 c0 -5
-7 -11 -15 -15 -20 -7 -20 -46 1 -46 8 0 36 16 62 35 l46 36 415 -4 c484 -5
487 -5 649 -95 59 -32 132 -68 162 -79 102 -39 324 -150 395 -198 39 -26 91
-66 116 -90 25 -23 68 -59 96 -79 58 -41 116 -111 261 -308 102 -140 107 -150
137 -301 2 -10 -3 -52 -10 -95 -54 -309 -124 -541 -220 -732 -42 -84 -88 -122
-231 -191 -141 -68 -193 -78 -440 -83 -312 -7 -514 -17 -557 -27 -68 -18 -337
63 -546 162 -237 113 -347 185 -533 346 -161 140 -267 264 -405 468 -76 113
-110 181 -161 320 -80 219 -96 323 -70 464 11 60 18 73 78 143 94 109 115 124
284 210 273 140 265 136 371 151 55 8 103 15 108 16 4 0 7 -3 7 -8z m-355 -30
c-19 -18 -166 -93 -172 -88 -3 3 35 26 83 51 94 47 104 52 89 37z m2215 -152
c19 -15 50 -49 69 -75 31 -44 24 -39 -60 41 -52 49 -98 94 -104 99 -14 13 54
-33 95 -65z m-2400 57 c0 -2 -7 -7 -16 -10 -8 -3 -12 -2 -9 4 6 10 25 14 25 6z
m2380 -221 c14 -15 48 -43 75 -63 71 -50 110 -88 163 -156 l46 -59 -75 61
c-41 34 -79 70 -86 80 -6 11 -69 68 -140 128 -167 140 -172 145 -83 86 41 -27
86 -62 100 -77z m-2908 -402 c-9 -23 -10 -12 -10 57 l1 85 9 -57 c7 -38 7 -66
0 -85z m3269 -15 c15 -28 5 -21 -21 15 -15 20 -17 27 -6 18 9 -8 22 -23 27
-33z m-2861 -952 c169 -249 451 -501 753 -674 174 -100 506 -246 752 -333 76
-27 78 -28 39 -29 -70 0 -321 84 -545 184 -236 106 -424 221 -633 388 -180
144 -410 418 -500 596 -24 46 -86 199 -86 211 0 2 28 -43 63 -100 35 -57 105
-167 157 -243z m-65 -95 c168 -253 200 -296 299 -395 306 -308 542 -455 1136
-708 91 -38 206 -80 255 -93 50 -13 113 -33 140 -44 l50 -22 -93 6 c-139 9
-225 38 -585 201 -345 156 -516 259 -717 430 -220 186 -314 298 -483 569 -61
99 -186 332 -145 271 7 -10 72 -107 143 -215z m506 -236 c67 -54 149 -115 183
-135 100 -61 283 -158 349 -187 100 -42 306 -123 392 -154 44 -15 103 -37 130
-48 l50 -19 -80 -4 c-44 -2 -89 0 -100 4 -366 127 -614 259 -882 466 -99 77
-221 195 -293 282 -41 50 -37 48 42 -26 47 -45 141 -125 209 -179z m2888 -165
c1 -82 0 -88 -36 -145 l-38 -60 -3 123 -3 122 33 44 c30 40 34 42 40 22 3 -11
6 -59 7 -106z m-303 -57 c-8 -16 -34 -44 -57 -63 l-44 -35 55 63 c30 34 56 62
57 62 2 0 -3 -12 -11 -27z m-2406 -168 c63 -37 158 -89 211 -116 164 -82 635
-275 714 -292 11 -3 -4 -5 -34 -6 -37 -1 -57 -6 -66 -17 -10 -14 -27 -9 -156
46 -213 91 -429 200 -556 278 -101 63 -352 257 -370 285 -4 6 27 -16 68 -49
40 -33 126 -91 189 -129z m2547 73 c-9 -151 -30 -191 -152 -295 -100 -85 -214
-134 -543 -234 l-163 -49 -172 0 c-139 0 -185 4 -239 19 -128 37 -118 39 192
44 290 4 297 4 410 34 64 17 136 40 160 53 76 38 185 125 315 253 104 103 129
133 155 190 16 37 33 67 36 67 4 0 4 -37 1 -82z m-597 -194 c-167 -76 -323
-109 -475 -101 -179 10 -193 23 -30 29 141 6 297 32 410 68 113 36 171 38 95
4z m-875 -104 c3 -5 16 -10 27 -10 12 0 19 -3 16 -6 -10 -9 -98 7 -92 17 7 12
41 11 49 -1z m1195 -160 c-56 -44 -257 -110 -333 -110 -16 0 297 114 353 128
3 1 -6 -7 -20 -18z m-560 -1 c-25 -4 -74 -7 -110 -7 -54 1 -59 2 -30 8 19 4
69 7 110 7 68 0 71 0 30 -8z m-586 -104 c37 -19 76 -35 85 -36 9 0 3 -5 -14
-10 -16 -5 -46 -6 -65 -3 -34 7 -170 69 -170 79 0 3 21 5 48 5 34 0 66 -10
116 -35z m1096 -6 c-66 -56 -209 -99 -320 -98 -32 0 -29 2 25 20 33 10 92 24
130 29 42 6 92 22 125 39 66 35 72 37 40 10z m-485 -81 c-50 -18 -89 -22 -235
-24 -117 -2 -162 0 -135 6 22 5 76 9 120 10 44 0 107 7 140 14 33 8 85 14 115
14 l55 0 -60 -20z"/>
</g>
</svg>
